# File created by Blade
# Date/Time:  Tue Sep 30 19:31:45 2014
#---------------------------------------------------------
:version 1.10
:name HOM
:units
  mass 1.0
  length 1.000000
  angle deg
:documentation
     Acclaim Skeleton File
:root
   axis xyz
   order TX TY TZ RX RY RZ
   position 0.000000 0.000000 0.000000
   orientation 0 0 0
:bonedata
   begin
      id 1
      name Spine_dum
      direction 0.000000 1.000000 0.000000
      length 3.241213
      axis 0.0 0.0 0.0 xyz
   end
   begin
      id 2
      name LeftUpLeg_dum
      direction 1.000000 0.000000 0.000000
      length 3.434019
      axis 0.0 0.0 0.0 xyz
   end
   begin
      id 3
      name RightUpLeg_dum
      direction -1.000000 0.000000 0.000000
      length 3.434019
      axis 0.0 0.0 0.0 xyz
   end
   begin
      id 4
      name Spine
      direction 0.000000 1.000000 0.000000
      length 0.000000
      axis 0.0 0.0 0.0 xyz
      dof rx ry rz
   end
   begin
      id 5
      name Spine_dum1
      direction 0.000000 1.000000 0.000000
      length 18.382958
      axis 0.0 0.0 0.0 xyz
   end
   begin
      id 6
      name Spine_dum2
      direction 0.000000 1.000000 0.000000
      length 12.828261
      axis 0.0 0.0 0.0 xyz
   end
   begin
      id 7
      name Spine_dum3
      direction 0.000000 1.000000 0.000000
      length 12.828261
      axis 0.0 0.0 0.0 xyz
   end
   begin
      id 8
      name Head
      direction 0.000000 1.000000 0.000000
      length 4.527550
      axis 0.0 0.0 0.0 xyz
      dof rx ry rz
   end
   begin
      id 9
      name LeftShoulder
      direction 1.000000 0.000000 0.000000
      length 7.748055
      axis 0.0 0.0 -90.0 xyz
      dof rx ry rz
   end
   begin
      id 10
      name LeftArm
      direction 1.000000 0.000000 0.000000
      length 10.635614
      axis 0.0 0.0 -90.0 xyz
      dof rx ry rz
   end
   begin
      id 11
      name LeftForeArm
      direction 1.000000 0.000000 0.000000
      length 8.346755
      axis 0.0 0.0 -90.0 xyz
      dof ry rz rx
   end
   begin
      id 12
      name LeftHand
      direction 0.000000 0.000000 0.000000
      length 0.000000
      axis 0.0 0.0 -90.0 xyz
      dof rx ry rz
   end
   begin
      id 13
      name LeftHand_dum1
      direction 0.000000 0.000000 0.000000
      length 0.000000
      axis 0.0 0.0 -90.0 xyz
   end
   begin
      id 14
      name LeftHand_dum2
      direction 1.000000 0.000000 0.000000
      length 3.937000
      axis 0.0 0.0 -90.0 xyz
   end
   begin
      id 15
      name LeftHandThumb1
      direction 0.000000 0.000000 1.000000
      length 3.937000
      axis 0.0 0.0 -90.0 xyz
      dof rx rz ry
   end
   begin
      id 16
      name RightShoulder
      direction -1.000000 0.000000 0.000000
      length 7.748055
      axis 0.0 0.0 90.0 xyz
      dof rx ry rz
   end
   begin
      id 17
      name RightArm
      direction -1.000000 0.000000 0.000000
      length 10.635614
      axis 0.0 0.0 90.0 xyz
      dof rx ry rz
   end
   begin
      id 18
      name RightForeArm
      direction -1.000000 0.000000 0.000000
      length 8.346755
      axis 0.0 0.0 90.0 xyz
      dof ry rz rx
   end
   begin
      id 19
      name RightHand
      direction 0.000000 0.000000 0.000000
      length 0.000000
      axis 0.0 0.0 90.0 xyz
      dof rx ry rz
   end
   begin
      id 20
      name RightHand_dum1
      direction 0.000000 0.000000 0.000000
      length 0.000000
      axis 0.0 0.0 90.0 xyz
   end
   begin
      id 21
      name RightHand_dum2
      direction -1.000000 0.000000 0.000000
      length 3.937000
      axis 0.0 0.0 90.0 xyz
   end
   begin
      id 22
      name RightHandThumb1
      direction 0.000000 0.000000 1.000000
      length 3.937000
      axis 0.0 0.0 90.0 xyz
      dof rx rz ry
   end
   begin
      id 23
      name LeftUpLeg
      direction 0.000000 -1.000000 0.000000
      length 15.713025
      axis 0.0 0.0 0.0 xyz
      dof rx ry rz
   end
   begin
      id 24
      name LeftLeg
      direction 0.000000 -1.000000 0.000000
      length 14.435119
      axis 0.0 0.0 0.0 xyz
      dof rx ry rz
   end
   begin
      id 25
      name LeftFoot
      direction 0.000000 -0.258819 0.965926
      length 4.938895
      axis 15.0 0.0 0.0 xyz
      dof rx ry rz
   end
   begin
      id 26
      name LeftToeBase
      direction 0.000000 0.000000 1.000000
      length 2.952750
      axis 0.0 0.0 0.0 xyz
      dof rx ry rz
   end
   begin
      id 27
      name RightUpLeg
      direction 0.000000 -1.000000 0.000000
      length 15.713025
      axis 0.0 0.0 0.0 xyz
      dof rx ry rz
   end
   begin
      id 28
      name RightLeg
      direction 0.000000 -1.000000 0.000000
      length 14.435119
      axis 0.0 0.0 0.0 xyz
      dof rx ry rz
   end
   begin
      id 29
      name RightFoot
      direction 0.000000 -0.258819 0.965926
      length 4.938895
      axis 15.0 0.0 0.0 xyz
      dof rx ry rz
   end
   begin
      id 30
      name RightToeBase
      direction 0.000000 0.000000 1.000000
      length 2.952750
      axis 0.0 0.0 0.0 xyz
      dof rx ry rz
   end
:hierarchy
   begin
      root Spine_dum LeftUpLeg_dum RightUpLeg_dum
      Spine_dum Spine
      LeftUpLeg_dum LeftUpLeg
      RightUpLeg_dum RightUpLeg
      Spine Spine_dum1 Spine_dum2 Spine_dum3
      Spine_dum1 Head
      Spine_dum2 LeftShoulder
      Spine_dum3 RightShoulder
      LeftShoulder LeftArm
      LeftArm LeftForeArm
      LeftForeArm LeftHand
      LeftHand LeftHand_dum1 LeftHand_dum2
      LeftHand_dum1 LeftHandThumb1
      RightShoulder RightArm
      RightArm RightForeArm
      RightForeArm RightHand
      RightHand RightHand_dum1 RightHand_dum2
      RightHand_dum1 RightHandThumb1
      LeftUpLeg LeftLeg
      LeftLeg LeftFoot
      LeftFoot LeftToeBase
      RightUpLeg RightLeg
      RightLeg RightFoot
      RightFoot RightToeBase
   end

# File created by Blade
# Date/Time:  Mon Sep 22 19:00:17 2014
# Frame Rate: 120.000 fps
#------------------------------------------------------
:FULLY-SPECIFIED
:DEGREES
1161
root -0.777478 32.812741 -4.135799 38.101040 0.858735 0.874846
Spine -44.422417 2.198585 -4.801479
Head 3.086413 -15.274726 -2.436960
LeftShoulder -7.136626 44.362685 13.006491
LeftArm 72.957604 35.137804 -46.204698
LeftForeArm 8.445032 -0.000000 7.722023
LeftHand -18.668657 -0.000000 -8.496940
LeftHandThumb1 -26.253704 0.000000 33.147579
RightShoulder -12.914981 -9.267798 -47.558215
RightArm 115.930585 41.088915 122.288321
RightForeArm 73.162106 0.000000 119.505449
RightHand 24.952725 -0.000000 -10.317331
RightHandThumb1 -24.326973 -0.000000 -32.862282
LeftUpLeg -33.267490 6.032742 -1.561802
LeftLeg -0.215163 -0.000000 0.000000
LeftFoot -1.626286 0.173361 -3.207433
LeftToeBase 1.925447 -0.000000 -0.000000
RightUpLeg -33.246669 -11.207976 5.356705
RightLeg -2.981075 -0.000000 0.000000
RightFoot -4.644014 -4.212427 18.127131
RightToeBase 15.918939 -0.000000 -0.000000
1162
root -0.778840 32.812200 -4.131242 38.108398 0.716131 0.867272
Spine -44.399336 1.898166 -4.504435
Head 2.960670 -14.898783 -2.276822
LeftShoulder -7.112660 44.341355 13.056699
LeftArm 73.016275 35.226974 -46.127735
LeftForeArm 8.350516 -0.000000 7.704014
LeftHand -18.638219 -0.000000 -8.521892
LeftHandThumb1 -26.253704 0.000000 33.147579
RightShoulder -13.013060 -9.074442 -47.677920
RightArm 115.577392 41.611725 122.073074
RightForeArm 73.207737 -0.000000 119.508713
RightHand 24.854207 -0.000000 -10.263606
RightHandThumb1 -24.326973 -0.000000 -32.862282
LeftUpLeg -33.240385 6.070456 -1.585888
LeftLeg -0.228943 -0.000000 0.000000
LeftFoot -1.647258 0.257227 -3.222556
LeftToeBase 1.936158 -0.000000 -0.000000
RightUpLeg -33.253674 -11.139266 5.315637
RightLeg -2.991275 -0.000000 0.000000
RightFoot -4.630910 -4.160748 18.130347
RightToeBase 15.953687 -0.000000 -0.000000
1163
root -0.778906 32.811359 -4.127986 38.132439 0.551700 0.860566
Spine -44.398345 1.630757 -4.245878
Head 2.876422 -14.545477 -2.141423
LeftShoulder -7.050782 44.340730 13.152760
LeftArm 73.045735 35.280910 -46.137879
LeftForeArm 8.385550 -0.000000 7.711294
LeftHand -18.627641 -0.000000 -8.651749
LeftHandThumb1 -26.253704 0.000000 33.147579
RightShoulder -13.094239 -9.178000 -47.656489
RightArm 115.673791 41.997239 122.054427
RightForeArm 73.220986 0.000000 119.481444
RightHand 24.828596 -0.000000 -10.225970
RightHandThumb1 -24.326973 -0.000000 -32.862282
LeftUpLeg -33.225777 6.116627 -1.626659
LeftLeg -0.251100 -0.000000 0.000000
LeftFoot -1.664231 0.357881 -3.199453
LeftToeBase 1.944785 -0.000000 -0.000000
RightUpLeg -33.286218 -11.020682 5.231280
RightLeg -2.975648 -0.000000 0.000000
RightFoot -4.630082 -4.128504 18.166605
RightToeBase 15.971719 -0.000000 -0.000000
1164
root -0.778417 32.811228 -4.123158 38.133389 0.405993 0.864103
Spine -44.371245 1.334633 -3.967212
Head 2.782319 -14.133200 -2.015864
LeftShoulder -7.041421 44.354951 13.196210
LeftArm 73.140151 35.349280 -46.023926
LeftForeArm 8.330590 -0.000000 7.752582
LeftHand -18.686543 0.000000 -8.619094
LeftHandThumb1 -26.253704 0.000000 33.147579
RightShoulder -13.191996 -9.174359 -47.607456
RightArm 115.675821 42.362310 121.915014
RightForeArm 73.229219 0.000000 119.425512
RightHand 24.705973 -0.000000 -10.018029
RightHandThumb1 -24.326973 -0.000000 -32.862282
LeftUpLeg -33.198327 6.179866 -1.688688
LeftLeg -0.257539 -0.000000 0.000000
LeftFoot -1.677347 0.421552 -3.202861
LeftToeBase 1.934058 -0.000000 -0.000000
RightUpLeg -33.277653 -10.974727 5.190477
RightLeg -3.013575 -0.000000 0.000000
RightFoot -4.599786 -4.094449 18.125939
RightToeBase 15.987063 -0.000000 -0.000000
1165
root -0.781533 32.811228 -4.120443 38.140548 0.269607 0.856157
Spine -44.345354 1.062570 -3.710892
Head 2.623278 -13.782659 -1.837644
LeftShoulder -7.012172 44.361037 13.267090
LeftArm 73.217875 35.378746 -45.966594
LeftForeArm 8.307407 -0.000000 7.782874
LeftHand -18.597375 0.000000 -8.765783
LeftHandThumb1 -26.253704 0.000000 33.147579
RightShoulder -13.353329 -9.270203 -47.520575
RightArm 115.703115 42.667888 121.759141
RightForeArm 73.210883 0.000000 119.367695
RightHand 24.758869 0.000000 -9.994066
RightHandThumb1 -24.326973 -0.000000 -32.862282
LeftUpLeg -33.182226 6.230189 -1.720218
LeftLeg -0.260480 -0.000000 0.000000
LeftFoot -1.694082 0.493128 -3.214141
LeftToeBase 1.927067 -0.000000 -0.000000
RightUpLeg -33.289855 -10.888631 5.138663
RightLeg -3.011728 -0.000000 0.000000
RightFoot -4.578677 -4.062637 18.175703
RightToeBase 15.967845 -0.000000 -0.000000
1166
root -0.784088 32.811090 -4.116773 38.148413 0.133177 0.844559
Spine -44.333864 0.784618 -3.444287
Head 2.511949 -13.448075 -1.657501
LeftShoulder -6.965959 44.370885 13.357869
LeftArm 73.344882 35.442306 -45.798834
LeftForeArm 8.088209 0.000000 7.860228
LeftHand -18.683722 0.000000 -8.818886
LeftHandThumb1 -26.253704 0.000000 33.147579
RightShoulder -13.473369 -9.312223 -47.449622
RightArm 115.689565 42.953408 121.592211
RightForeArm 73.168445 -0.000000 119.318115
RightHand 24.852938 -0.000000 -9.982274
RightHandThumb1 -24.326973 -0.000000 -32.862282
LeftUpLeg -33.167332 6.298996 -1.761690
LeftLeg -0.262746 -0.000000 0.000000
LeftFoot -1.706922 0.554705 -3.202374
LeftToeBase 1.898097 -0.000000 -0.000000
RightUpLeg -33.307750 -10.820381 5.104280
RightLeg -3.004261 -0.000000 0.000000
RightFoot -4.559878 -4.009361 18.177371
RightToeBase 15.974025 -0.000000 -0.000000
1167
root -0.786464 32.811157 -4.111374 38.146682 -0.011916 0.833664
Spine -44.313274 0.535310 -3.214256
Head 2.406721 -13.162113 -1.463807
LeftShoulder -6.918099 44.391829 13.456282
LeftArm 73.468006 35.483063 -45.654283
LeftForeArm 8.114164 -0.000000 7.959989
LeftHand -18.763421 -0.000000 -8.798968
LeftHandThumb1 -26.253704 0.000000 33.147579
RightShoulder -13.600478 -9.365302 -47.375341
RightArm 115.689993 43.227944 121.486104
RightForeArm 73.094587 0.000000 119.290588
RightHand 24.852066 -0.000000 -9.939654
RightHandThumb1 -24.326973 -0.000000 -32.862282
LeftUpLeg -33.135000 6.373182 -1.806127
LeftLeg -0.270826 -0.000000 0.000000
LeftFoot -1.723571 0.610988 -3.175232
LeftToeBase 1.920098 -0.000000 -0.000000
RightUpLeg -33.308794 -10.733815 5.051868
RightLeg -3.000640 -0.000000 0.000000
RightFoot -4.546494 -3.990315 18.164520
RightToeBase 16.005646 -0.000000 -0.000000
1168
root -0.789766 32.811208 -4.106382 38.149620 -0.141593 0.825778
Spine -44.299638 0.265067 -2.969044
Head 2.303014 -12.825590 -1.277930
LeftShoulder -6.880349 44.403251 13.558310
LeftArm 73.531386 35.521778 -45.580535
LeftForeArm 8.235519 -0.000000 8.075247
LeftHand -18.792746 -0.000000 -8.774543
LeftHandThumb1 -26.253704 0.000000 33.147579
RightShoulder -13.719468 -9.448223 -47.297077
RightArm 115.720002 43.421391 121.430535
RightForeArm 73.018555 -0.000000 119.283404
RightHand 24.714174 -0.000000 -9.841521
RightHandThumb1 -24.326973 -0.000000 -32.862282
LeftUpLeg -33.117569 6.447437 -1.855149
LeftLeg -0.267034 -0.000000 0.000000
LeftFoot -1.749635 0.674518 -3.165869
LeftToeBase 1.964808 -0.000000 -0.000000
RightUpLeg -33.318992 -10.667338 5.013303
RightLeg -2.990777 -0.000000 0.000000
RightFoot -4.521214 -3.946019 18.154092
RightToeBase 16.013085 -0.000000 -0.000000
1169
root -0.793871 32.811083 -4.101900 38.146531 -0.286790 0.804107
Spine -44.282695 0.013939 -2.726410
Head 2.200858 -12.507348 -1.099629
LeftShoulder -6.874682 44.394483 13.632768
LeftArm 73.627407 35.575042 -45.424736
LeftForeArm 8.168873 -0.000000 8.198582
LeftHand -18.690497 -0.000000 -8.900915
LeftHandThumb1 -26.253704 0.000000 33.147579
RightShoulder -13.819981 -9.558191 -47.205946
RightArm 115.835659 43.565585 121.411923
RightForeArm 73.074670 -0.000000 119.265414
RightHand 24.655375 -0.000000 -9.659718
RightHandThumb1 -24.326973 -0.000000 -32.862282
LeftUpLeg -33.094582 6.538365 -1.896646
LeftLeg -0.259753 -0.000000 0.000000
LeftFoot -1.776291 0.730294 -3.171474
LeftToeBase 1.933810 -0.000000 -0.000000
RightUpLeg -33.336880 -10.550564 4.951521
RightLeg -2.943178 -0.000000 0.000000
RightFoot -4.535427 -3.905135 18.194238
RightToeBase 16.025434 -0.000000 -0.000000
1170
root -0.796555 32.810402 -4.097796 38.155847 -0.434700 0.785641
Spine -44.281573 -0.217030 -2.506938
Head 2.131264 -12.238698 -0.898757
LeftShoulder -6.833703 44.393204 13.741506
LeftArm 73.688560 35.616693 -45.336275
LeftForeArm 8.107988 -0.000000 8.352786
LeftHand -18.676105 -0.000000 -8.695547
LeftHandThumb1 -26.253704 0.000000 33.147579
RightShoulder -13.922823 -9.638235 -47.135816
RightArm 115.835459 43.744093 121.311090
RightForeArm 72.904884 -0.000000 119.290388
RightHand 24.629568 -0.000000 -9.739159
RightHandThumb1 -24.326973 -0.000000 -32.862282
LeftUpLeg -33.077950 6.601687 -1.926996
LeftLeg -0.259458 -0.000000 0.000000
LeftFoot -1.809697 0.814103 -3.165519
LeftToeBase 1.938517 -0.000000 -0.000000
RightUpLeg -33.362948 -10.451052 4.902464
RightLeg -2.914614 -0.000000 0.000000
RightFoot -4.528178 -3.868309 18.232361
RightToeBase 15.999187 -0.000000 -0.000000
1171
root -0.797047 32.809763 -4.092525 38.155952 -0.562393 0.784775
Spine -44.280083 -0.463049 -2.284213
Head 2.060610 -12.003835 -0.728383
LeftShoulder -6.840202 44.436354 13.800694
LeftArm 73.796128 35.611794 -45.190551
LeftForeArm 8.210618 -0.000000 8.536788
LeftHand -18.677559 -0.000000 -8.675313
LeftHandThumb1 -26.253704 0.000000 33.147579
RightShoulder -14.009499 -9.766857 -47.091186
RightArm 115.840458 43.895449 121.258751
RightForeArm 72.897965 -0.000000 119.296092
RightHand 24.665403 -0.000000 -9.520953
RightHandThumb1 -24.326973 -0.000000 -32.862282
LeftUpLeg -33.051077 6.648592 -1.972489
LeftLeg -0.265786 -0.000000 0.000000
LeftFoot -1.824426 0.906273 -3.157310
LeftToeBase 1.921986 -0.000000 -0.000000
RightUpLeg -33.360450 -10.398143 4.865751
RightLeg -2.930770 -0.000000 0.000000
RightFoot -4.518408 -3.849669 18.166997
RightToeBase 16.064828 -0.000000 -0.000000
1172
root -0.799337 32.809359 -4.087824 38.158728 -0.706529 0.771209
Spine -44.278688 -0.672665 -2.084572
Head 1.993538 -11.757956 -0.556959
LeftShoulder -6.796922 44.411282 13.894879
LeftArm 73.903075 35.658457 -44.992894
LeftForeArm 8.119042 -0.000000 8.689481
LeftHand -18.767179 -0.000000 -8.364259
LeftHandThumb1 -26.253704 0.000000 33.147579
RightShoulder -14.095966 -9.847853 -47.055988
RightArm 115.762567 44.104960 121.117021
RightForeArm 72.679322 -0.000000 119.372646
RightHand 24.641679 -0.000000 -9.714968
RightHandThumb1 -24.326973 -0.000000 -32.862282
LeftUpLeg -33.037276 6.744619 -2.030909
LeftLeg -0.253148 -0.000000 0.000000
LeftFoot -1.847877 0.948106 -3.145729
LeftToeBase 1.908855 -0.000000 -0.000000
RightUpLeg -33.377171 -10.293021 4.807160
RightLeg -2.902370 -0.000000 0.000000
RightFoot -4.522802 -3.832848 18.159543
RightToeBase 16.053375 -0.000000 -0.000000
